<?xml version="1.0" encoding="UTF-8" standalone="no"?>
<!-- Created with Inkscape (http://www.inkscape.org/) -->

<svg
   xmlns:dc="http://purl.org/dc/elements/1.1/"
   xmlns:cc="http://creativecommons.org/ns#"
   xmlns:rdf="http://www.w3.org/1999/02/22-rdf-syntax-ns#"
   xmlns:svg="http://www.w3.org/2000/svg"
   xmlns="http://www.w3.org/2000/svg"
   xmlns:xlink="http://www.w3.org/1999/xlink"
   xmlns:sodipodi="http://sodipodi.sourceforge.net/DTD/sodipodi-0.dtd"
   xmlns:inkscape="http://www.inkscape.org/namespaces/inkscape"
   width="64px"
   height="64px"
   id="svg2985"
   version="1.1"
   inkscape:version="0.48.4 r9939"
   sodipodi:docname="描画.svg">
  <defs
     id="defs2987">
    <linearGradient
       id="linearGradient4117">
      <stop
         style="stop-color:#ff0000;stop-opacity:1;"
         offset="0"
         id="stop4119" />
      <stop
         style="stop-color:#ff5f00;stop-opacity:1;"
         offset="1"
         id="stop4121" />
    </linearGradient>
    <linearGradient
       id="linearGradient3849">
      <stop
         style="stop-color:#7e7e7e;stop-opacity:1;"
         offset="0"
         id="stop3851" />
      <stop
         id="stop3861"
         offset="0.48648649"
         style="stop-color:#616161;stop-opacity:1;" />
      <stop
         id="stop3859"
         offset="0.51351351"
         style="stop-color:#414141;stop-opacity:1;" />
      <stop
         id="stop3857"
         offset="1"
         style="stop-color:#363636;stop-opacity:1;" />
    </linearGradient>
    <inkscape:perspective
       sodipodi:type="inkscape:persp3d"
       inkscape:vp_x="-41.272727 : 8.666667 : 0"
       inkscape:vp_y="0 : 999.99997 : 0"
       inkscape:vp_z="73.344819 : 44.769869 : 0"
       inkscape:persp3d-origin="53.272727 : 0.42424209 : 1"
       id="perspective2993" />
    <clipPath
       clipPathUnits="userSpaceOnUse"
       id="clipPath3812">
      <rect
         y="-3.1086245e-15"
         x="0"
         height="64"
         width="64"
         id="rect3814"
         style="fill:#ffffff;fill-rule:evenodd;stroke:#000000;stroke-width:0;stroke-linecap:butt;stroke-linejoin:miter;stroke-miterlimit:4;stroke-opacity:1;stroke-dasharray:none" />
    </clipPath>
    <linearGradient
       inkscape:collect="always"
       xlink:href="#linearGradient3849"
       id="linearGradient3855"
       x1="45"
       y1="14"
       x2="45"
       y2="51"
       gradientUnits="userSpaceOnUse"
       gradientTransform="translate(-7,0)" />
    <linearGradient
       inkscape:collect="always"
       xlink:href="#linearGradient4117"
       id="linearGradient4125"
       x1="42"
       y1="22"
       x2="42"
       y2="43"
       gradientUnits="userSpaceOnUse" />
    <filter
       inkscape:collect="always"
       id="filter4217"
       x="-0.34179567"
       width="1.6835913"
       y="-0.17551669"
       height="1.3510334">
      <feGaussianBlur
         inkscape:collect="always"
         stdDeviation="2.7058824"
         id="feGaussianBlur4219" />
    </filter>
    <filter
       inkscape:collect="always"
       id="filter4291"
       x="-0.08306509"
       width="1.1661302"
       y="-0.10001715"
       height="1.2000343">
      <feGaussianBlur
         inkscape:collect="always"
         stdDeviation="2.0420168"
         id="feGaussianBlur4293" />
    </filter>
  </defs>
  <sodipodi:namedview
     id="base"
     pagecolor="#ffffff"
     bordercolor="#666666"
     borderopacity="1.0"
     inkscape:pageopacity="0.0"
     inkscape:pageshadow="2"
     inkscape:zoom="4"
     inkscape:cx="20.965252"
     inkscape:cy="49.198212"
     inkscape:current-layer="layer2"
     showgrid="true"
     inkscape:document-units="px"
     inkscape:grid-bbox="true"
     inkscape:snap-global="true"
     inkscape:window-width="1280"
     inkscape:window-height="757"
     inkscape:window-x="0"
     inkscape:window-y="18"
     inkscape:window-maximized="1"
     showguides="false"
     inkscape:guide-bbox="true">
    <inkscape:grid
       type="xygrid"
       id="grid3029"
       empspacing="5"
       visible="true"
       enabled="true"
       snapvisiblegridlinesonly="true"
       spacingx="1px"
       dotted="false"
       units="px"
       spacingy="1px" />
    <sodipodi:guide
       orientation="-0.70710678,0.70710678"
       position="-10,60"
       id="guide3845" />
  </sodipodi:namedview>
  <metadata
     id="metadata2990">
    <rdf:RDF>
      <cc:Work
         rdf:about="">
        <dc:format>image/svg+xml</dc:format>
        <dc:type
           rdf:resource="http://purl.org/dc/dcmitype/StillImage" />
        <dc:title></dc:title>
      </cc:Work>
    </rdf:RDF>
  </metadata>
  <g
     inkscape:groupmode="layer"
     id="layer2"
     inkscape:label="レイヤー"
     style="display:inline">
    <path
       style="fill:#ff7c00;fill-opacity:1;stroke:#000000;stroke-width:0;stroke-linecap:butt;stroke-linejoin:miter;stroke-miterlimit:4;stroke-opacity:1;stroke-dasharray:none"
       d="M 11,8 C 9,8 5,12 5,14 l 0,37 c 0,2 4,6 6,6 l 53,0 0,-4 -49,0 c -2,0 -5,-3 -5,-5 l 0,-31 c 0,-2 3,-5 5,-5 l 49,0 0,-4 C 45.911035,8 26.693131,8 11,8 z"
       id="path3818"
       inkscape:connector-curvature="0"
       sodipodi:nodetypes="ccccccccccccc" />
    <path
       style="fill:#000000;fill-opacity:1;stroke:#000000;stroke-width:0;stroke-linecap:butt;stroke-linejoin:miter;stroke-miterlimit:4;stroke-opacity:1;stroke-dasharray:none"
       d="m 15,12 c -2,0 -5,3 -5,5 l 0,31 c 0,2 3,5 5,5 l 49,0 0,-2 -48,0 c -2,0 -4,-2 -4,-4 l 0,-29 c 0,-2 2,-4 4,-4 l 48,0 0,-2 c -14,0 -35,0 -49,0 z"
       id="path3839"
       inkscape:connector-curvature="0"
       sodipodi:nodetypes="ccccccccccccc" />
    <path
       style="fill:#000000;fill-opacity:1;stroke:#ff0000;stroke-width:0;stroke-linecap:butt;stroke-linejoin:miter;stroke-miterlimit:4;stroke-opacity:1;stroke-dasharray:none"
       d="m 33,51 0,-6 -5,0 0,-9 c 0,-16 0,-16 0,-16 l 5,0 0,-6 -2,0 0,4 -5,0 0,29 5,0 0,4 z"
       id="path3841"
       inkscape:connector-curvature="0"
       sodipodi:nodetypes="cccscccccccccc" />
    <path
       style="fill:#ffffff;fill-opacity:1;stroke:#000000;stroke-width:0;stroke-linecap:butt;stroke-linejoin:miter;stroke-miterlimit:4;stroke-opacity:1;stroke-dasharray:none"
       d="m 26,47 5,0 0,4 -15,0 c -2,0 -4,-2 -4,-4 l 0,-29 c 0,-2 2,-4 4,-4 l 15,0 0,4 -5,0 z"
       id="path3843"
       inkscape:connector-curvature="0"
       sodipodi:nodetypes="ccccccccccc" />
    <path
       style="fill:url(#linearGradient3855);fill-opacity:1;stroke:#000000;stroke-width:0;stroke-linecap:butt;stroke-linejoin:miter;stroke-miterlimit:4;stroke-opacity:1;stroke-dasharray:none"
       d="m 33,14 0,6 -5,0 0,25 5,0 0,6 31,0 0,-37 z"
       id="path3847"
       inkscape:connector-curvature="0"
       sodipodi:nodetypes="ccccccccc" />
    <path
       inkscape:connector-curvature="0"
       style="fill:#ff4700;fill-opacity:1;stroke:#000000;stroke-width:4;stroke-linecap:butt;stroke-linejoin:miter;stroke-miterlimit:4;stroke-opacity:1;stroke-dasharray:none;marker-end:none;display:inline"
       d="m 43,22 c -2,0 -4,2 -4,4 l 0,17 5,0 0,-6 12,0 c 2,0 4,-3 4,-5 l 0,-6 c 0,-2 -2,-4 -4,-4 z m 3,4 7,0 c 1,0 2,1 2,2 l 0,3 c 0,1 -1,2 -2,2 l -7,0 c -1,0 -2,-1 -2,-2 l 0,-3 c 0,-1 1,-2 2,-2 z"
       id="path3863-5"
       sodipodi:nodetypes="sscccssssssssssssss" />
    <path
       style="fill:url(#linearGradient4125);fill-opacity:1;stroke:#000000;stroke-width:0;stroke-linecap:butt;stroke-linejoin:miter;stroke-miterlimit:4;stroke-opacity:1;stroke-dasharray:none;marker-end:none"
       d="m 43,22 c -2,0 -4,2 -4,4 l 0,17 5,0 0,-6 12,0 c 2,0 4,-3 4,-5 l 0,-6 c 0,-2 -2,-4 -4,-4 z m 3,4 7,0 c 1,0 2,1 2,2 l 0,3 c 0,1 -1,2 -2,2 l -7,0 c -1,0 -2,-1 -2,-2 l 0,-3 c 0,-1 1,-2 2,-2 z"
       id="path3863"
       inkscape:connector-curvature="0"
       sodipodi:nodetypes="sscccssssssssssssss" />
  </g>
  <g
     inkscape:groupmode="layer"
     id="layer3"
     inkscape:label="レイヤー#1"
     style="display:inline">
    <path
       style="opacity:0.43162393;fill:#ff1900;fill-opacity:1;stroke:#ff1900;stroke-width:5;stroke-linecap:butt;stroke-linejoin:miter;stroke-miterlimit:4;stroke-opacity:1;stroke-dasharray:none;display:inline;filter:url(#filter4291)"
       d="M 11,8.0000005 C 9,8.0000005 5,12 5,14 l 0,37 c 0,2 4,6 6,6 l 53,0 0,-4 -49,0 c -2,0 -5,-3 -5,-5 l 0,-31 c 0,-2 3,-5 5,-5 l 49,0 0,-3.9999995 c -18.088965,0 -37.306869,0 -53,0 z"
       id="path3818-5"
       inkscape:connector-curvature="0"
       sodipodi:nodetypes="ccccccccccccc" />
    <path
       style="opacity:0.43589747;fill:#ffffff;fill-opacity:1;stroke:#ffffff;stroke-width:10;stroke-linecap:butt;stroke-linejoin:miter;stroke-miterlimit:4;stroke-opacity:1;stroke-dasharray:none;display:inline;filter:url(#filter4217)"
       d="m 26,47 5,0 0,4 -15,0 c -2,0 -4,-2 -4,-4 l 0,-29 c 0,-2 2,-4 4,-4 l 15,0 0,4 -5,0 z"
       id="path3843-3"
       inkscape:connector-curvature="0"
       sodipodi:nodetypes="ccccccccccc" />
  </g>
</svg>
